<svg xmlns="http://www.w3.org/2000/svg" width="191.24" height="138.484" viewBox="0 0 191.24 138.484">
  <g id="Gruppe_1630" data-name="Gruppe 1630" transform="translate(-137.107 -122.526)">
    <g id="verification" transform="translate(137.107 122.526)">
      <path id="Pfad_208" data-name="Pfad 208" d="M178.051,195.916H13.189A13.189,13.189,0,0,1,0,182.727V83.81A13.189,13.189,0,0,1,13.189,70.621H178.051A13.189,13.189,0,0,1,191.24,83.81v98.917A13.189,13.189,0,0,1,178.051,195.916Z" transform="translate(0 -70.621)" fill="#e4eaf8"/>
      <path id="Pfad_209" data-name="Pfad 209" d="M100.3,300.138A29.608,29.608,0,0,0,72.346,339.7h55.9a29.608,29.608,0,0,0-27.95-39.567Z" transform="translate(-44.243 -214.41)" fill="#d5dced"/>
      <path id="Pfad_210" data-name="Pfad 210" d="M117.741,204.848H38.607a3.3,3.3,0,0,1-3.3-3.3V109.228a3.3,3.3,0,0,1,3.3-3.3h79.134a3.3,3.3,0,0,1,3.3,3.3v92.322A3.3,3.3,0,0,1,117.741,204.848Z" transform="translate(-22.121 -92.742)" fill="#afb9d2"/>
      <path id="Pfad_211" data-name="Pfad 211" d="M71.138,326.516H130.1a29.665,29.665,0,0,0-58.964,0Z" transform="translate(-44.567 -214.41)" fill="#959cb5"/>
      <path id="Pfad_212" data-name="Pfad 212" d="M126.673,219.31a3.3,3.3,0,0,0,3.3-3.3v-8.436a6.6,6.6,0,0,0-4.509-6.256l-13.025-4.342a3.3,3.3,0,0,1-2.255-3.121L110.169,188a6.593,6.593,0,0,0,3.622-5.351l.721-7.852a6.551,6.551,0,0,0,2.269-4.941V153.365a3.3,3.3,0,0,0-3.3-3.3H93.7a9.892,9.892,0,0,0-9.892,9.892v9.892a6.551,6.551,0,0,0,2.269,4.941l.721,7.852A6.594,6.594,0,0,0,90.42,188l-.012,5.863a3.3,3.3,0,0,1-2.255,3.121l-13.025,4.342a6.6,6.6,0,0,0-4.509,6.256v8.436a3.3,3.3,0,0,0,3.3,3.3Z" transform="translate(-44.242 -120.393)" fill="#e4eaf8"/>
      <path id="Pfad_213" data-name="Pfad 213" d="M340.769,121.353H294.607a3.3,3.3,0,0,1,0-6.595h46.161a3.3,3.3,0,1,1,0,6.595Z" transform="translate(-182.501 -98.272)" fill="#7f8499"/>
      <path id="Pfad_214" data-name="Pfad 214" d="M357.255,156.663H294.607a3.3,3.3,0,0,1,0-6.595h62.647a3.3,3.3,0,0,1,0,6.595Z" transform="translate(-182.501 -120.393)" fill="#707487"/>
      <path id="Pfad_215" data-name="Pfad 215" d="M390.437,280.249H347.572a3.3,3.3,0,0,1,0-6.595h42.864a3.3,3.3,0,0,1,0,6.595Z" transform="translate(-215.683 -197.818)" fill="#959cb5"/>
      <path id="Pfad_216" data-name="Pfad 216" d="M301.2,280.249h-6.594a3.3,3.3,0,0,1,0-6.595H301.2a3.3,3.3,0,0,1,0,6.595Z" transform="translate(-182.501 -197.818)" fill="#7f8499"/>
      <path id="Pfad_217" data-name="Pfad 217" d="M380.545,315.56H347.572a3.3,3.3,0,0,1,0-6.595h32.972a3.3,3.3,0,0,1,0,6.595Z" transform="translate(-215.683 -219.94)" fill="#959cb5"/>
      <path id="Pfad_218" data-name="Pfad 218" d="M301.2,315.56h-6.594a3.3,3.3,0,0,1,0-6.595H301.2a3.3,3.3,0,0,1,0,6.595Z" transform="translate(-182.501 -219.94)" fill="#7f8499"/>
      <path id="Pfad_219" data-name="Pfad 219" d="M380.545,350.87H347.572a3.3,3.3,0,0,1,0-6.595h32.972a3.3,3.3,0,0,1,0,6.595Z" transform="translate(-215.683 -242.061)" fill="#959cb5"/>
      <path id="Pfad_220" data-name="Pfad 220" d="M301.2,350.87h-6.594a3.3,3.3,0,1,1,0-6.595H301.2a3.3,3.3,0,0,1,0,6.595Z" transform="translate(-182.501 -242.061)" fill="#7f8499"/>
      <circle id="Ellipse_36" data-name="Ellipse 36" cx="8.243" cy="8.243" r="8.243" transform="translate(110.457 47.81)" fill="#27ae60"/>
      <g id="Gruppe_131" data-name="Gruppe 131" transform="translate(136.835 47.81)">
        <circle id="Ellipse_37" data-name="Ellipse 37" cx="8.243" cy="8.243" r="8.243" fill="#f1c40e"/>
        <circle id="Ellipse_38" data-name="Ellipse 38" cx="8.243" cy="8.243" r="8.243" transform="translate(26.378)" fill="#f1c40e"/>
      </g>
      <path id="Pfad_221" data-name="Pfad 221" d="M133.36,313.327a29.669,29.669,0,0,0-49.342,0Z" transform="translate(-52.636 -214.41)" fill="#d5dced"/>
      <circle id="Ellipse_39" data-name="Ellipse 39" cx="23.081" cy="23.081" r="23.081" transform="translate(32.972 92.322)" fill="#27ae60"/>
      <path id="Pfad_222" data-name="Pfad 222" d="M125.748,372.887a3.279,3.279,0,0,1-2.144-.794l-7.693-6.594a3.3,3.3,0,0,1,4.289-5.007l5.271,4.519,9.937-10.838a3.3,3.3,0,0,1,4.862,4.456l-12.091,13.189A3.29,3.29,0,0,1,125.748,372.887Z" transform="translate(-71.894 -247.592)" fill="#fff"/>
    </g>
  </g>
</svg>
