<svg xmlns="http://www.w3.org/2000/svg" xmlns:xlink="http://www.w3.org/1999/xlink" width="375" height="240.053" viewBox="0 0 375 240.053">
  <defs>
    <linearGradient id="linear-gradient" x1="0.5" y1="1" x2="0.5" gradientUnits="objectBoundingBox">
      <stop offset="0" stop-color="gray" stop-opacity="0.251"/>
      <stop offset="0.54" stop-color="gray" stop-opacity="0.122"/>
      <stop offset="1" stop-color="gray" stop-opacity="0.102"/>
    </linearGradient>
  </defs>
  <g id="Gruppe_1628" data-name="Gruppe 1628" transform="translate(0 -145.463)">
    <g id="f1" transform="translate(89.074)">
      <path id="Pfad_1257" data-name="Pfad 1257" d="M263.258,113.949c-22.765-.749-44.464-7.71-65.153-15.325s-41.194-16.052-63.426-20.087c-14.294-2.6-30.641-2.963-42.156,4.295C81.44,89.814,77.86,101.869,75.934,113.054c-1.448,8.416-2.289,17.272,1.671,25.153,2.756,5.468,7.647,10.067,11.031,15.306,11.77,18.229,3.449,40.71-9.308,58.524-5.983,8.361-12.924,16.316-17.54,25.206s-6.755,19.074-2.714,28.141c4.005,8.98,13.545,15.736,23.883,20.483,21,9.633,45.736,12.389,69.86,13.968,53.4,3.459,107.092,1.96,160.635.461,19.816-.557,39.72-1.118,59.212-4.025,10.825-1.613,22-4.171,29.863-10.345,9.975-7.84,12.45-21.112,5.764-30.943-11.214-16.486-42.218-20.582-50.058-38.276-4.312-9.739.118-20.589,6.388-29.621,13.447-19.375,35.993-36.375,37.18-58.524.817-15.213-10.021-30.445-26.78-37.644-17.563-7.552-41.92-6.6-54.877,5.883C306.8,109.66,283.355,114.608,263.258,113.949Z" transform="translate(-126.11 68.951)" fill="#efeefe"/>
      <g id="Gruppe_1620" data-name="Gruppe 1620" transform="translate(65.211 305.442)">
        <path id="Pfad_1258" data-name="Pfad 1258" d="M214.022,665.388s-17.031-12.875-20.248-29.253a32.371,32.371,0,0,0-9.974-17.87,54.5,54.5,0,0,0-7.98-5.945" transform="translate(-165.534 -600.161)" fill="none" stroke="#535461" stroke-miterlimit="10" stroke-width="2"/>
        <path id="Pfad_1259" data-name="Pfad 1259" d="M150.8,574.9c1.493,2.019,2.168,10.575,2.168,10.575s-7.98-3.143-9.475-5.159A4.548,4.548,0,0,1,150.8,574.9Z" transform="translate(-142.602 -573.057)" fill="#6c63ff"/>
        <path id="Pfad_1260" data-name="Pfad 1260" d="M195.055,591.18c.155,2.505-3.923,10.054-3.923,10.054s-4.995-6.98-5.153-9.485a4.546,4.546,0,1,1,9.073-.57Z" transform="translate(-172.541 -582.626)" fill="#6c63ff"/>
        <path id="Pfad_1261" data-name="Pfad 1261" d="M240.652,648.307c-1.127,2.242-8.463,6.7-8.463,6.7s-.783-8.546.344-10.788a4.545,4.545,0,1,1,8.12,4.088Z" transform="translate(-204.265 -620.456)" fill="#6c63ff"/>
        <path id="Pfad_1262" data-name="Pfad 1262" d="M263.683,704.656c-.734,2.4-7.209,8.032-7.209,8.032s-2.22-8.289-1.486-10.692a4.546,4.546,0,1,1,8.695,2.66Z" transform="translate(-220.085 -659.849)" fill="#6c63ff"/>
        <path id="Pfad_1263" data-name="Pfad 1263" d="M170.014,632.569c2.477.334,10.308-3.2,10.308-3.2s-6.608-5.475-9.1-5.809a4.546,4.546,0,0,0-1.211,9.011Z" transform="translate(-158.805 -607.892)" fill="#6c63ff"/>
        <path id="Pfad_1264" data-name="Pfad 1264" d="M195,696.4c2.477-.424,8.878-6.137,8.878-6.137s-7.946-3.245-10.42-2.821a4.546,4.546,0,1,0,1.548,8.958Z" transform="translate(-175.107 -651.997)" fill="#6c63ff"/>
        <path id="Pfad_1265" data-name="Pfad 1265" d="M232.459,754.381c2.511,0,9.788-4.549,9.788-4.549s-7.28-4.543-9.791-4.543a4.546,4.546,0,1,0,0,9.091Z" transform="translate(-201.494 -691.957)" fill="#6c63ff"/>
      </g>
      <g id="Gruppe_1621" data-name="Gruppe 1621" transform="translate(167.04 170.213)">
        <path id="Pfad_1266" data-name="Pfad 1266" d="M833.49,323.921s10.5-18.595,26.32-23.951A32.368,32.368,0,0,0,876.2,287.711,54.292,54.292,0,0,0,881.024,279" transform="translate(-833.172 -249.826)" fill="none" stroke="#535461" stroke-miterlimit="10" stroke-width="2"/>
        <path id="Pfad_1267" data-name="Pfad 1267" d="M996.361,250.593c-1.8,1.746-10.191,3.555-10.191,3.555s2.059-8.33,3.861-10.079a4.545,4.545,0,1,1,6.33,6.525Z" transform="translate(-938.574 -224.825)" fill="#6c63ff"/>
        <path id="Pfad_1268" data-name="Pfad 1268" d="M980.378,296.514c-2.477.489-10.488-2.552-10.488-2.552s6.255-5.883,8.717-6.363a4.546,4.546,0,1,1,1.771,8.915Z" transform="translate(-927.336 -255.687)" fill="#6c63ff"/>
        <path id="Pfad_1269" data-name="Pfad 1269" d="M930.693,349.7c-2.372-.821-7.763-7.5-7.763-7.5s8.361-1.914,10.739-1.093a4.545,4.545,0,1,1-2.976,8.59Z" transform="translate(-893.917 -292.565)" fill="#6c63ff"/>
        <path id="Pfad_1271" data-name="Pfad 1271" d="M947.3,276.988c0,2.511,4.552,9.8,4.552,9.8S956.4,279.508,956.4,277a4.546,4.546,0,1,0-9.088,0Z" transform="translate(-911.741 -245.225)" fill="#6c63ff"/>
        <path id="Pfad_1272" data-name="Pfad 1272" d="M887.52,310.8c.749,2.4,7.264,7.986,7.264,7.986s2.168-8.3,1.412-10.7a4.546,4.546,0,0,0-8.67,2.716Z" transform="translate(-887.363 -267.81)" fill="#6c63ff"/>
        <path id="Pfad_1274" data-name="Pfad 1274" d="M996.361,250.593c-1.8,1.746-10.191,3.555-10.191,3.555s2.059-8.33,3.861-10.079a4.545,4.545,0,1,1,6.33,6.525Z" transform="translate(-938.574 -224.825)" opacity="0.25"/>
        <path id="Pfad_1275" data-name="Pfad 1275" d="M980.378,296.514c-2.477.489-10.488-2.552-10.488-2.552s6.255-5.883,8.717-6.363a4.546,4.546,0,1,1,1.771,8.915Z" transform="translate(-927.336 -255.687)" opacity="0.25"/>
        <path id="Pfad_1276" data-name="Pfad 1276" d="M930.693,349.7c-2.372-.821-7.763-7.5-7.763-7.5s8.361-1.914,10.739-1.093a4.545,4.545,0,1,1-2.976,8.59Z" transform="translate(-893.917 -292.565)" opacity="0.25"/>
        <path id="Pfad_1278" data-name="Pfad 1278" d="M947.3,276.988c0,2.511,4.552,9.8,4.552,9.8S956.4,279.508,956.4,277a4.546,4.546,0,1,0-9.088,0Z" transform="translate(-911.741 -245.225)" opacity="0.25"/>
        <path id="Pfad_1279" data-name="Pfad 1279" d="M887.52,310.8c.749,2.4,7.264,7.986,7.264,7.986s2.168-8.3,1.412-10.7a4.546,4.546,0,0,0-8.67,2.716Z" transform="translate(-887.363 -267.81)" opacity="0.25"/>
        <path id="Pfad_1281" data-name="Pfad 1281" d="M835.44,288.414s2.062-21.254,14.343-32.557A32.38,32.38,0,0,0,859.8,238.009a54.279,54.279,0,0,0,.895-9.909" transform="translate(-834.518 -214.687)" fill="none" stroke="#535461" stroke-miterlimit="10" stroke-width="2"/>
        <path id="Pfad_1282" data-name="Pfad 1282" d="M922.361,191.024c-.929,2.329-7.878,7.382-7.878,7.382s-1.492-8.45-.554-10.779a4.547,4.547,0,1,1,8.432,3.406Z" transform="translate(-888.489 -184.782)" fill="#6c63ff"/>
        <path id="Pfad_1283" data-name="Pfad 1283" d="M923.881,237.064c-2.053,1.443-10.621,1.917-10.621,1.917s3.338-7.908,5.391-9.351a4.546,4.546,0,1,1,5.23,7.432Z" transform="translate(-888.241 -215.117)" fill="#6c63ff"/>
        <path id="Pfad_1284" data-name="Pfad 1284" d="M895.3,306.19c-2.5.211-10.138-3.716-10.138-3.716s6.874-5.14,9.376-5.351a4.546,4.546,0,1,1,.762,9.06Z" transform="translate(-868.842 -262.326)" fill="#6c63ff"/>
        <path id="Pfad_1286" data-name="Pfad 1286" d="M883.315,237.784c1.016,2.295,8.119,7.122,8.119,7.122s1.208-8.5.192-10.791a4.546,4.546,0,0,0-8.311,3.679Z" transform="translate(-867.329 -217.039)" fill="#6c63ff"/>
      </g>
      <g id="Gruppe_1622" data-name="Gruppe 1622" transform="translate(68.78 145.463)">
        <path id="Pfad_1270" data-name="Pfad 1270" d="M876.363,379.016c-2.326-.384-8.363-5.72-8.363-5.72s7.441-3.1,9.765-2.716a4.273,4.273,0,0,1-1.387,8.433Z" transform="translate(-760.34 -282.017)" fill="#6c63ff"/>
        <path id="Pfad_1273" data-name="Pfad 1273" d="M834.871,354.746c.314,2.326,5.455,8.541,5.455,8.541s3.318-7.343,3-9.678a4.269,4.269,0,1,0-8.459,1.137Z" transform="translate(-736.807 -267.309)" fill="#6c63ff"/>
        <path id="Pfad_1277" data-name="Pfad 1277" d="M876.363,379.016c-2.326-.384-8.363-5.72-8.363-5.72s7.441-3.1,9.765-2.716a4.273,4.273,0,0,1-1.387,8.433Z" transform="translate(-760.34 -282.017)" opacity="0.25"/>
        <path id="Pfad_1280" data-name="Pfad 1280" d="M834.871,354.746c.314,2.326,5.455,8.541,5.455,8.541s3.318-7.343,3-9.678a4.269,4.269,0,1,0-8.459,1.137Z" transform="translate(-736.807 -267.309)" opacity="0.25"/>
        <path id="Pfad_1285" data-name="Pfad 1285" d="M859.071,354.438c-2.283.582-9.971-1.823-9.971-1.823s5.545-5.848,7.828-6.441a4.269,4.269,0,0,1,2.143,8.264Z" transform="translate(-746.935 -264.634)" fill="#6c63ff"/>
        <path id="Pfad_1287" data-name="Pfad 1287" d="M841.861,291.72c1.556,1.771,9.273,4.091,9.273,4.091s-1.3-7.953-2.858-9.724a4.269,4.269,0,1,0-6.415,5.633Z" transform="translate(-741.049 -221.087)" fill="#6c63ff"/>
        <path id="Pfad_1288" data-name="Pfad 1288" d="M812.211,354.323c1.233,2.006,8.448,5.6,8.448,5.6s.061-8.058-1.163-10.067a4.269,4.269,0,0,0-7.27,4.469Z" transform="translate(-720.381 -265.975)" fill="#6c63ff"/>
        <path id="Pfad_1289" data-name="Pfad 1289" d="M784.44,141.035c.483-1.771,1.064-3.551,1.471-5.345C785.423,137.484,784.838,139.27,784.44,141.035Z" transform="translate(-701.078 -115.454)" fill="url(#linear-gradient)"/>
        <path id="Pfad_1291" data-name="Pfad 1291" d="M526.508,355.837l-1.745.771s-11.373,44.183-11.373,47.754S537.505,427.8,537.505,427.8l3.763-25.4S535.865,344.162,526.508,355.837Z" transform="translate(-508.847 -270.488)" fill="#d6e8f5"/>
        <path id="Pfad_1292" data-name="Pfad 1292" d="M692.384,226.9l-10.076-5.258a20.184,20.184,0,0,0-2.954-6.732,15,15,0,0,0-5.877-5.31c-6.173-2.768,26.113-17.3,26.113-17.3a52.542,52.542,0,0,0,1.794,5.147c1.663,4.106,4.423,9.416,7.979,10.928C715.409,210.949,692.384,226.9,692.384,226.9Z" transform="translate(-621.826 -155.603)" fill="#ffc1c7"/>
        <path id="Pfad_1293" data-name="Pfad 1293" d="M701.384,197.447a24.072,24.072,0,0,1-22.03,17.462,15,15,0,0,0-5.877-5.31c-6.173-2.768,26.113-17.3,26.113-17.3A52.54,52.54,0,0,0,701.384,197.447Z" transform="translate(-621.825 -155.603)" opacity="0.1"/>
        <path id="Pfad_1295" data-name="Pfad 1295" d="M641.013,231.334l-6.56,15.307-5.787,10.16H610.143l-5.4-13.891,2.19-14.406h14.147l9.134-.515,3.085-1.029,1.989,1.128Z" transform="translate(-557.076 -163.126)" fill="#575a89"/>
        <path id="Pfad_1296" data-name="Pfad 1296" d="M739.927,230.463s4.091.872.427,3.876-16.3,12.556-16.3,12.556,4.44,3.955,3.522,8.587l14.711-8.2,2.617-13.121S745.193,230.219,739.927,230.463Z" transform="translate(-658.249 -182.661)" opacity="0.1"/>
        <path id="Pfad_1297" data-name="Pfad 1297" d="M704.043,287l-9.358,1.544s1.931,7.139.965,9.166a1.365,1.365,0,0,0-.073.195l-3.818,10.32,2.861,8.1,9.9-13.507-3.376-5.112s3.568-4.728,5.691-6.368S704.043,287,704.043,287Z" transform="translate(-635.349 -222.765)" opacity="0.1"/>
        <path id="Pfad_1298" data-name="Pfad 1298" d="M704.043,285.63l-9.358,1.541s1.931,7.139.965,9.166a1.365,1.365,0,0,0-.073.195l-3.818,10.32,2.861,8.1,9.9-13.516-3.376-5.112s3.568-4.728,5.691-6.368S704.043,285.63,704.043,285.63Z" transform="translate(-635.349 -221.792)" fill="#dce6f2"/>
        <path id="Pfad_1299" data-name="Pfad 1299" d="M740.32,227.813s4.091.872.425,3.876-16.694,13.327-16.694,13.327,4.824,3.184,3.908,7.814l14.711-8.2,2.617-13.121S745.577,227.569,740.32,227.813Z" transform="translate(-658.249 -180.782)" fill="#575a89"/>
        <path id="Pfad_1300" data-name="Pfad 1300" d="M671.477,273.18s.893,1.669,4.833,4.679c0,0-6.56,3.49-4.051,8.4l-10.035-2.617-1.544-4.824Z" transform="translate(-613.306 -212.963)" opacity="0.1"/>
        <path id="Pfad_1301" data-name="Pfad 1301" d="M670.154,271.86s.893,1.669,4.833,4.679c0,0-6.56,3.472-4.051,8.392L660.9,282.314l-1.544-4.821Z" transform="translate(-612.37 -212.028)" fill="#575a89"/>
        <path id="Pfad_1302" data-name="Pfad 1302" d="M697.953,292.745l-6.56,15.307-5.775,10.16H667.083l-5.4-13.891,2.187-14.406H667.8c-.064,3.362,1.163,7.311,1.085,8.779-.134,2.414,3.6,15.435,3.6,15.435s7.814-12.638,10.9-13.763c1.94-.707,6.048-6.586,8.837-10.867Z" transform="translate(-614.016 -224.537)" opacity="0.1"/>
        <path id="Pfad_1303" data-name="Pfad 1303" d="M646.414,359.283l-.666.837s4.824,24.214,3.489,29.713a15.611,15.611,0,0,0-.387,3.018v.044a58.215,58.215,0,0,0,1.454,12.856s1.349,21.4.582,30.2H560.561c-.529-13.016-1.1-29.879-.582-31.749.872-3.085,2.617-14.278,2.617-14.278l.192-5.3s0-5.127.157-10.838c.067-2.568.166-5.263.308-7.654a40.42,40.42,0,0,1,.791-6.784,14.953,14.953,0,0,0,.372-2.873,1.485,1.485,0,0,1,.017-.276c0-.291.029-.6.041-.928v-.291c.055-1.873.035-4.094-.026-6.4V348.2c-.049-1.727-.122-3.49-.2-5.164-.253-5.234-.582-9.66-.582-9.66L552.57,296.623l2.989-7.363,8.3-5.083,15.339-9.262c7.482-6.15,12.408-5.412,14.287-4.737a4.957,4.957,0,0,1,.535.218c.058.029.1.052.148.078a1.228,1.228,0,0,1,.172.1h0a3.542,3.542,0,0,0-1.3,1.073,4.747,4.747,0,0,0-.806,1.745,8.119,8.119,0,0,0-.206,1.189c-.038.422-.052.858-.052,1.3a22.479,22.479,0,0,0,.247,2.876v.064c.1.68.215,1.346.331,1.972a.133.133,0,0,0,0,.032c.134.73.268,1.4.358,1.986.018.1.032.2.047.291a6.648,6.648,0,0,1,.09,1.163,14.135,14.135,0,0,0,.378,2.792c.076.384.163.794.259,1.221.131.582.273,1.216.427,1.861.084.355.174.721.268,1.085.035.145.073.291.108.439l.058.23c.619,2.463,1.291,4.914,1.7,6.4.244.872.4,1.41.4,1.41a108.562,108.562,0,0,1,7.875-11.111c.052-.058.1-.113.148-.166.346-.4.686-.762,1.012-1.082a5.978,5.978,0,0,1,1.867-1.4,2.035,2.035,0,0,0,.317-.148c1.431-.811,3.74-3.757,5.9-6.842.212-.291.419-.608.628-.907.48-.692.945-1.387,1.384-2.053.337-.509.66-1,.965-1.474,1.454-2.262,2.478-3.949,2.478-3.949l2.018-.09.352-.017h.236l9.163-.425s.4.067,1.047.2a.186.186,0,0,1,.108.023c3.251.646,12.283,2.69,12.836,5.525.675,3.472,15.243,8.1,15.243,8.1.192,2.326,3.76,3.859,3.76,3.859s5.4,14.278,3.958,19.873c-1.428,5.525,3.716,19.192,3.853,19.576h0l-.986,1.245Z" transform="translate(-536.634 -210.524)" fill="#fff"/>
        <path id="Pfad_1304" data-name="Pfad 1304" d="M748.775,225.5s8.919-2.53,10.945,2.678,6.56,26.241,6.56,26.241-11.771,2.219-14.857,0a8.89,8.89,0,0,0-6.272-1.64l-6.656,4.533-1.966-.582s10.649-15.831,12.964-21.21S752.59,227.738,748.775,225.5Z" transform="translate(-667.1 -178.713)" opacity="0.1"/>
        <path id="Pfad_1305" data-name="Pfad 1305" d="M747.474,221.5s8.924-2.53,10.96,2.678,6.56,26.241,6.56,26.241-11.768,2.219-14.857,0a8.881,8.881,0,0,0-6.269-1.64l-6.662,4.533-1.966-.582s10.649-15.831,12.964-21.21S751.289,223.744,747.474,221.5Z" transform="translate(-666.185 -175.877)" fill="#d6e8f5"/>
        <path id="Pfad_1306" data-name="Pfad 1306" d="M571.186,511.55s6.656,1.64,7.912,5.4-4.92,3.859-4.92,3.859S570.416,514.155,571.186,511.55Z" transform="translate(-549.763 -382.017)" opacity="0.1"/>
        <path id="Pfad_1307" data-name="Pfad 1307" d="M624.744,607.09s-16.3,33.38-12.539,36.564S624.744,607.09,624.744,607.09Z" transform="translate(-578.527 -449.775)" opacity="0.1"/>
        <path id="Pfad_1308" data-name="Pfad 1308" d="M734,522.5s13.025,32.423,10.419,37.431,5.595,0,5.595,0Z" transform="translate(-665.306 -389.783)" opacity="0.1"/>
        <path id="Pfad_1309" data-name="Pfad 1309" d="M714.656,632.64s-43.991,2.123-31.158,15.822,39.167.582,39.167.582Z" transform="translate(-627.825 -467.896)" fill="#ffc1c7"/>
        <path id="Pfad_1312" data-name="Pfad 1312" d="M509.551,513.451l-2.219.774s.872,13.121-2.036,16.883,9.55,13.118,9.55,13.118,17.075-.1,17.558-1.454-.872-24.31-.872-24.31-9.166-3.571-8.4-9.262c0,0-2.8,13.408-6.944,12.83S507.338,517.988,509.551,513.451Z" transform="translate(-502.795 -380.351)" fill="#d6e8f5"/>
        <ellipse id="Ellipse_300" data-name="Ellipse 300" cx="5.854" cy="5.353" rx="5.854" ry="5.353" transform="translate(8.303 135.032)" opacity="0.1"/>
        <path id="Pfad_1313" data-name="Pfad 1313" d="M518.324,455.057s-1.163-35.5-11.289-27.59-10.224,17.369-8.3,20.164,8.11,16.785,8.11,16.785h0a7.075,7.075,0,0,0,10.468-4.653Z" transform="translate(-497.768 -321.57)" fill="#ffc1c7"/>
        <path id="Pfad_1314" data-name="Pfad 1314" d="M593.745,213.659a.855.855,0,0,0-.262-.4c-.5-.457-1.576-.616-3.2-.477l.067.768c2.164-.186,2.591.244,2.646.317v.073l.067.1a3.245,3.245,0,0,1,.582,2.559c-.474,2.37-3.385,4.257-3.414,4.278l-.07.041-.044.067c-1.256,1.864-8.36,7.124-10.218,8.485l-.163-.186c-.832.721-8.142,7.121-8.538,9.573-.256,1.538-1.989,2.134-2.617,2.3a16.432,16.432,0,0,1-3.934-4.135c-1.05-1.806,3.175-5.33,3.548-6.706l-.582-.6c-.061.221-5.487,5.292-3.978,7.883a17.261,17.261,0,0,0,4.193,4.446c-.247,2.245-1.785,15.427-4.15,18.55-2.937,3.882-5.406,23.447-5.133,30.277.241,6.069-1.343,17.532-6.636,22.455a8.482,8.482,0,0,1-7,2.326h-.128a20.653,20.653,0,0,1-14.2-4.653c-5.278-4.44-8.267-11.687-8.889-21.545h-.128l-.052-2.87a5.6,5.6,0,1,0-.835.067h.064l.052,2.853-.256.017c.64,10.178,3.78,17.706,9.305,22.356a21.519,21.519,0,0,0,15.008,4.911,10.812,10.812,0,0,0,1.163.064,9.538,9.538,0,0,0,6.688-2.69c5.574-5.191,7.27-17.075,7.005-23.351-.291-7.238,2.3-26.1,4.9-29.533,2.547-3.37,4.091-16.5,4.362-19.047.922-.259,3.007-1.076,3.362-3.2.256-1.535,5.138-6.267,8.142-8.887l-.09-.1a113.158,113.158,0,0,0,9.137-7.293c.773-.742,1.541-1.483,2.344-2.19a7.5,7.5,0,0,0,2.515-3.818A3.97,3.97,0,0,0,593.745,213.659Z" transform="translate(-510.025 -170.094)" opacity="0.1"/>
        <path id="Pfad_1315" data-name="Pfad 1315" d="M684.665,282.333a17.8,17.8,0,0,1-4.47-4.653c-1.506-2.591,3.92-7.659,3.978-7.88l.582.6c-.369,1.373-4.594,4.9-3.545,6.7a16.9,16.9,0,0,0,4.138,4.289Z" transform="translate(-626.96 -210.567)" fill="#353146"/>
        <path id="Pfad_1316" data-name="Pfad 1316" d="M735.654,229.085l-.454-.625c.093-.067,9.227-6.674,10.666-8.811l.047-.064.067-.044c.029-.02,2.94-1.9,3.414-4.278a3.225,3.225,0,0,0-.582-2.556l-.067-.1v-.07c-.058-.076-.486-.5-2.649-.317l-.067-.771c1.626-.14,2.7.02,3.2.477a.872.872,0,0,1,.265.4,3.972,3.972,0,0,1,.657,3.085,7.462,7.462,0,0,1-2.515,3.818c-.8.707-1.57,1.454-2.341,2.19A122.188,122.188,0,0,1,735.654,229.085Z" transform="translate(-666.157 -169.151)" fill="#e8f5ff"/>
        <rect id="Rechteck_701" data-name="Rechteck 701" width="0.771" height="4.685" transform="translate(10.34 115.493) rotate(-1.05)" fill="#e8f5ff"/>
        <circle id="Ellipse_301" data-name="Ellipse 301" cx="5.627" cy="5.627" r="5.627" transform="translate(4.65 104.934)" fill="#6c63ff"/>
        <circle id="Ellipse_302" data-name="Ellipse 302" cx="4.673" cy="4.673" r="4.673" transform="translate(5.604 105.888)" fill="#e8f5ff"/>
        <path id="Pfad_1317" data-name="Pfad 1317" d="M558.136,355.894a10.8,10.8,0,0,1-1.163-.061,21.551,21.551,0,0,1-15.008-4.911c-5.525-4.653-8.66-12.173-9.305-22.359l1.163-.073c.622,9.858,3.612,17.107,8.892,21.545a20.734,20.734,0,0,0,14.2,4.653h.128a8.5,8.5,0,0,0,7-2.326c5.289-4.923,6.874-16.386,6.633-22.455-.291-6.837,2.178-26.4,5.118-30.28,2.573-3.4,4.17-18.721,4.187-18.875l.044-.436.43-.076c.026,0,2.539-.477,2.853-2.355.407-2.448,7.706-8.849,8.535-9.573l.759.872c-3.016,2.617-7.9,7.351-8.142,8.889-.355,2.129-2.44,2.943-3.359,3.2-.291,2.547-1.823,15.677-4.362,19.047-2.6,3.434-5.191,22.3-4.9,29.533.25,6.275-1.428,18.163-7,23.351A9.541,9.541,0,0,1,558.136,355.894Z" transform="translate(-522.514 -209.51)" fill="#353146"/>
        <g id="Gruppe_1622-2" data-name="Gruppe 1622" transform="translate(28.182)">
          <path id="Pfad_1294" data-name="Pfad 1294" d="M657.134,126.111a23.944,23.944,0,1,1-7.014-17.04,24.058,24.058,0,0,1,7.014,17.04Z" transform="translate(-604.851 -91.603)" fill="#ffc1c7"/>
          <path id="Pfad_1310" data-name="Pfad 1310" d="M659.1,126.118a23.943,23.943,0,0,1-1.823,9.195c-.4.047-.808.076-1.2.093-.582-1.277-.27-2.751-.259-4.155s-.506-3.056-1.858-3.434c-2.7-.759-4.557,4.28-7.214,3.37-2.036-.692-1.5-3.78-2.675-5.563-.928-1.41-2.786-1.809-4.231-2.693-3.074-1.887-2.981-4.906-4.408-7.761-1.495-2.992-4.653-2.108-7.395-.343-2.082,1.343-3.879,3.143-6.107,4.214a15.106,15.106,0,0,1-6.232,1.317,13.693,13.693,0,0,1-3.908-.413,24.057,24.057,0,0,1,47.306,6.174Z" transform="translate(-606.815 -91.611)" opacity="0.1"/>
          <path id="Pfad_1311" data-name="Pfad 1311" d="M615.912,88.549c-2.085,1.343-3.879,3.141-6.107,4.216a15.15,15.15,0,0,1-6.232,1.314c-2.617.058-5.435-.4-7.223-2.291a6.968,6.968,0,0,1-1.341-6.717,10.91,10.91,0,0,1,4.318-5.563c1.957-1.375,4.228-2.326,5.525-4.3a34.717,34.717,0,0,0,1.588-3.376c1.823-3.545,5.923-5.464,9.887-5.7s7.892.942,11.667,2.222,7.578,2.687,11.562,2.952c1.774.11,3.617,0,5.263.672,2.213.9,3.664,3.047,4.653,5.234a17.5,17.5,0,0,1,1.681,7.851c-.244,5.749-4.042,11.39-2.373,16.9.442,1.468,1.271,2.975.829,4.443-.646,2.143-3.411,2.632-5.647,2.733-.582-1.277-.271-2.754-.259-4.155s-.506-3.056-1.855-3.434c-2.7-.753-4.56,4.278-7.212,3.37-2.021-.695-1.5-3.78-2.672-5.563-.928-1.413-2.789-1.809-4.231-2.693-3.074-1.887-2.981-4.906-4.408-7.761C621.818,85.9,618.657,86.781,615.912,88.549Z" transform="translate(-594.682 -66.104)" fill="#99607e"/>
          <g id="Gruppe_1616" data-name="Gruppe 1616" transform="translate(0.248 18.558)" opacity="0.1">
            <path id="Pfad_1318" data-name="Pfad 1318" d="M783,148.151c.477-1.762,1.053-3.536,1.454-5.321C783.974,144.624,783.4,146.389,783,148.151Z" transform="translate(-728.487 -139.076)"/>
            <path id="Pfad_1319" data-name="Pfad 1319" d="M645.184,152.843c-.582-1.277-.27-2.754-.259-4.155s-.506-3.042-1.855-3.434c-2.7-.753-4.56,4.28-7.212,3.37-2.036-.695-1.5-3.78-2.672-5.563-.928-1.413-2.786-1.809-4.228-2.693-3.077-1.887-2.984-4.906-4.408-7.761-1.5-3-4.653-2.111-7.4-.343-2.085,1.343-3.879,3.143-6.107,4.216a15.151,15.151,0,0,1-6.232,1.314c-2.6.061-5.435-.4-7.223-2.291A6.752,6.752,0,0,1,596,129.92c-.049.137-.093.273-.137.41a6.987,6.987,0,0,0,1.341,6.717c1.788,1.89,4.621,2.35,7.223,2.291a15.164,15.164,0,0,0,6.235-1.314c2.233-1.076,4.028-2.873,6.107-4.216,2.745-1.768,5.9-2.652,7.4.343,1.425,2.856,1.335,5.874,4.408,7.761,1.454.872,3.3,1.279,4.231,2.693,1.163,1.788.648,4.868,2.672,5.563,2.649.907,4.51-4.123,7.209-3.37,1.349.378,1.87,2.036,1.855,3.434s-.317,2.879.259,4.155c2.236-.1,5-.582,5.65-2.733a3.13,3.13,0,0,0,.122-.951C649.627,152.334,647.2,152.753,645.184,152.843Z" transform="translate(-595.536 -129.92)"/>
          </g>
        </g>
        <path id="Pfad_1320" data-name="Pfad 1320" d="M830.073,375.258l3.376,3.571s2.7,19.678,4.051,21.519,4.536,9.163,1.544,14.662c0,0-.965,2.992-.387,4.246s-4.339,7.526-4.339,7.526-6.464,5.787-7.816,6.656-8.488,7.814-10.9,7.91-3.2,3.088-3.2,3.088l-13.6.483s-7.514-.393-9.148.669c0,0,.872-11.48-7.523-19.006l10.707-3.859s4.054-1.745,5.307-3.568a6.551,6.551,0,0,1,3.2-2.411s2.989-2.123,3.085-3.28,3.655-2.576,3.655-2.576l-2.015-17.2,1.061-28.556s3.376-23.926,10.515-22.574S830.073,375.258,830.073,375.258Z" transform="translate(-699.44 -262.126)" opacity="0.1"/>
        <path id="Pfad_1321" data-name="Pfad 1321" d="M834.073,375.258l3.376,3.571s2.7,19.678,4.051,21.519,4.536,9.163,1.544,14.662c0,0-.963,2.992-.384,4.246s-4.341,7.526-4.341,7.526-6.464,5.787-7.816,6.656-8.488,7.814-10.9,7.91-3.2,3.088-3.2,3.088l-13.6.483s-7.52-.393-9.148.669c0,0,.872-11.48-7.523-19.006l10.707-3.859s4.054-1.745,5.307-3.568a6.552,6.552,0,0,1,3.2-2.411s2.989-2.123,3.085-3.28,3.655-2.576,3.655-2.576l-2.015-17.2,1.061-28.556s3.376-23.926,10.515-22.574S834.073,375.258,834.073,375.258Z" transform="translate(-702.277 -262.126)" fill="#d6e8f5"/>
        <path id="Pfad_1322" data-name="Pfad 1322" d="M907.84,551.891s9.936-2.617,12.542.582S907.84,551.891,907.84,551.891Z" transform="translate(-788.594 -409.912)" opacity="0.1"/>
        <path id="Pfad_1323" data-name="Pfad 1323" d="M899.88,569.44c3.376,2.364,13.8,2.46,13.8,2.46Z" transform="translate(-782.949 -423.073)" opacity="0.1"/>
        <path id="Pfad_1324" data-name="Pfad 1324" d="M917.46,610.08c.291.1,7.162,7.43,10.047,5.211S917.46,610.08,917.46,610.08Z" transform="translate(-795.417 -451.896)" opacity="0.1"/>
        <path id="Pfad_1325" data-name="Pfad 1325" d="M599.22,398.42s2.018,13.894,1.024,19.553,2.635,12.67,2.635,12.67Z" transform="translate(-569.719 -301.785)" opacity="0.1"/>
      </g>
      <g id="Gruppe_1619" data-name="Gruppe 1619" transform="translate(-89.074 210.651)">
        <path id="Pfad_1326" data-name="Pfad 1326" d="M380.08,411.572c-2.477,1.941-4.286,6.537-5.6,11.587a124.65,124.65,0,0,0-3.031,19.025s-19.725-4.521-18.288-6.574c.9-1.291-.31-11.02-1.322-18.074-.6-4.168-1.143-7.4-1.143-7.4S386.861,406.227,380.08,411.572Z" transform="translate(-320.76 -367.841)" fill="#ffccd0"/>
        <path id="Pfad_1327" data-name="Pfad 1327" d="M380.08,410.245c-2.477,1.945-4.286,6.537-5.6,11.587a22.759,22.759,0,0,1-22.642-5.62c-.6-4.171-1.143-7.407-1.143-7.407S386.861,404.9,380.08,410.245Z" transform="translate(-320.76 -366.926)" opacity="0.1"/>
        <path id="Pfad_1328" data-name="Pfad 1328" d="M378.083,329.931a22.815,22.815,0,1,1-5.019-14.269A22.815,22.815,0,0,1,378.083,329.931Z" transform="translate(-308.161 -297.68)" fill="#ffccd0"/>
        <path id="Pfad_1329" data-name="Pfad 1329" d="M520.9,787.727h-6.5l-.548-11.485-.573-11.888s1.477-.22,3.83-.548l.951-.127h.077c.514,2.412,1.022,4.889,1.511,7.364a75.66,75.66,0,0,1,1.266,13.315v.91C520.935,786.1,520.916,786.922,520.9,787.727Z" transform="translate(-432.997 -612.862)" opacity="0.1"/>
        <path id="Pfad_1330" data-name="Pfad 1330" d="M352.06,598.094H270.51c.353-.8.588-1.288.588-1.288s6.524-28.544,9.841-40.62a.159.159,0,0,0,0-.031,48.3,48.3,0,0,1,1.5-4.846h0a1.662,1.662,0,0,1,.146-.31c1.641-2.669,3.7-5.546.821-9.655s-1.858-22.19-1.858-22.19,3.493-15.411,7.19-23.629a11.055,11.055,0,0,1,2.347-3.406,9.6,9.6,0,0,1,1.028-.873h0a9.037,9.037,0,0,1,.861-.573l.059-.037a12.423,12.423,0,0,1,5.057-1.57,14.426,14.426,0,0,1,3.793.105A56.615,56.615,0,0,1,316.49,493.2c10.339,4.543,13.47,10.63,13.532,10.757h0l.025.053c.415.969,6.484,15.139,8.67,21.75a9.272,9.272,0,0,1,.752,3.264c-.619,1.641,4.725,22.186,4.725,22.186s2.477,9.909,4.954,21.524c.108.483.211.966.31,1.455.443,2.109.883,4.258,1.307,6.4A75.273,75.273,0,0,1,352.032,594Q352.1,596.1,352.06,598.094Z" transform="translate(-265.401 -423.23)" fill="#ff748e"/>
        <path id="Pfad_1331" data-name="Pfad 1331" d="M345.607,464.857s-5.626-2.168-5.558,1.121,1.372,4.862.96,5.341.2,3.357.2,3.357,7.6,0,11.095,1.573,16.368,4.725,18.012,5.685,7.741,5.264,7.741,5.264l.548-8.15a46.5,46.5,0,0,0-16.641-7.874A66.364,66.364,0,0,1,345.607,464.857Z" transform="translate(-313.406 -406.087)" opacity="0.1"/>
        <path id="Pfad_1332" data-name="Pfad 1332" d="M345.607,463.527s-5.626-2.168-5.558,1.121,1.372,4.862.96,5.341.2,3.357.2,3.357,7.6,0,11.095,1.576,16.368,4.725,18.012,5.682,7.741,5.264,7.741,5.264l.554-8.125a46.5,46.5,0,0,0-16.641-7.874A65.844,65.844,0,0,1,345.607,463.527Z" transform="translate(-313.406 -405.169)" fill="#ff748e"/>
        <path id="Pfad_1333" data-name="Pfad 1333" d="M412.85,528.43s10.751,11.64,10.2,14.863S412.85,528.43,412.85,528.43Z" transform="translate(-363.665 -450.458)" opacity="0.1"/>
        <path id="Pfad_1334" data-name="Pfad 1334" d="M435.391,741.85s-4.177,8.494-1.917,7.946S435.391,741.85,435.391,741.85Z" transform="translate(-377.44 -597.792)" fill="none"/>
        <path id="Pfad_1335" data-name="Pfad 1335" d="M332.174,664.22s-7.881,7.261-10.2,7.673,1.78,1.78,4.45.687,8.361-3.97,8.361-3.97Z" transform="translate(-300.453 -544.2)" opacity="0.1"/>
        <path id="Pfad_1336" data-name="Pfad 1336" d="M473.111,786.1H454.733c-2.57-2.229-5-4.295-6.549-5.537a21.372,21.372,0,0,1-5.4-7.268c-.257-.536-.48-1.037-.669-1.492a24.907,24.907,0,0,1-.892-2.4l13.609-8.082a21.275,21.275,0,0,1,2.115,2.068l.164.189a5.588,5.588,0,0,1,1.48,2.734c.068.966,2.756,4.7,5.5,8.292,2.787,3.651,5.642,7.141,5.831,7.376h0s.471.641,1.239,1.626C471.7,784.318,472.371,785.172,473.111,786.1Z" transform="translate(-383.25 -611.234)" fill="#ffccd0"/>
        <path id="Pfad_1337" data-name="Pfad 1337" d="M373.089,315.688a13.274,13.274,0,0,0-1.325,4.645c-.245,4.738.152,15.331-5.094,17.709-2.6,1.17-5.379-1.4-8.227-1.462a6.689,6.689,0,0,0-5.18,2.883,31.19,31.19,0,0,0-2.936,5.394,36.843,36.843,0,0,1-2.846,4.8,12.073,12.073,0,0,1-1.053,1.328A22.809,22.809,0,1,1,373.089,315.7Z" transform="translate(-308.186 -297.705)" opacity="0.1"/>
        <path id="Pfad_1338" data-name="Pfad 1338" d="M317.176,298.415c-.248,4.738.152,15.331-5.1,17.706-2.6,1.17-5.379-1.4-8.227-1.458a6.69,6.69,0,0,0-5.18,2.88,30.992,30.992,0,0,0-2.935,5.4,36.924,36.924,0,0,1-2.846,4.8,6.968,6.968,0,0,1-2.326,2.319c-1.709.892-3.781.39-5.614-.183q-3.567-1.124-7.029-2.533A7.09,7.09,0,0,0,278,326.29c-.068.13-.142.251-.217.381l-.146.254c-.263.464-.52.929-.756,1.406-.09.183-.177.372-.254.56a7.123,7.123,0,0,0-.579,2.217c-.158,2.065.861,4.025,1.765,5.883,3.477,7.187,5.626,15.591,3.01,23.131-1.133,3.279-3.1,6.193-4.53,9.361a30.243,30.243,0,0,0-2.115,17.892c.715,3.753,2.149,7.469,1.8,11.274-.619,6.549-6.267,11.423-11.925,14.773-3.056,1.8-6.8,3.406-10.042,1.982,2.068-2.415,2.6-5.756,3.047-8.909q1.83-12.9,3.669-25.806.734-5.137,1.465-10.274c.91-6.435,1.833-12.94,1.263-19.415-.415-4.772-1.585-9.838.483-14.157,1.093-2.288,3.041-4.183,3.648-6.648.5-2,.034-4.134.362-6.174a10.509,10.509,0,0,1,.9-2.675,13.145,13.145,0,0,1,2.075-3.165,3.543,3.543,0,0,1-2.075-1.266c1.332-.867,1.533-2.821.929-4.289a13.18,13.18,0,0,0-2.9-3.744,7.229,7.229,0,0,1-2.27-4.087c-.263-3.007,2.74-5.335,3.27-8.3.536-3.019-1.582-5.955-1.412-9.011.2-3.694,3.592-6.379,6.942-7.936a31.584,31.584,0,0,1,16.189-2.787c4.515.427,8.884,1.824,13.386,2.366,2.716.31,5.468.341,8.165.818a13.118,13.118,0,0,1,7.3,3.462C323.455,288.621,317.461,292.916,317.176,298.415Z" transform="translate(-254.01 -276.623)" fill="#ffe0d0"/>
        <path id="Pfad_1339" data-name="Pfad 1339" d="M361.7,624.468c-1.579-.684-4.453-.276-9.385-1.777s-5.883-8.289-5.883-8.289v-.022h0c-.059-.155-.517-1.164-3.62-4.7-3.428-3.9-10.838-23.626-10.838-23.626S325.4,579,325.61,576.4s-1.167-9.522-1.031-17.263,14.792-12.875,14.792-12.875c28.219-5,21.573,27.531,20.821,30s3.152,9.122,3.152,9.122c-.551,2.9,2.26,7.385,2.26,7.385s.681,3.97.821,5.478a.929.929,0,0,0,.046.2c.452,1.421,4.137,2.709,5.636,3.493,1.576.824,6.645,8.014,6.645,8.014C379.845,615.228,363.273,625.162,361.7,624.468Z" transform="translate(-302.721 -462.404)" opacity="0.1"/>
        <path id="Pfad_1340" data-name="Pfad 1340" d="M364.357,620.5c-1.576-.687-4.453-.276-9.382-1.78s-5.883-8.286-5.883-8.286v-.022h0c-.056-.158-.517-1.164-3.62-4.7-3.428-3.9-10.838-23.629-10.838-23.629s-6.571-7.054-6.366-9.655-1.164-9.522-1.028-17.257,14.783-12.866,14.783-12.866c28.218-5,21.573,27.531,20.821,30s3.152,9.122,3.152,9.122c-.551,2.9,2.26,7.385,2.26,7.385s.681,3.97.824,5.478a.776.776,0,0,0,.043.2c.452,1.421,4.137,2.709,5.639,3.493,1.573.821,6.645,8.014,6.645,8.014C382.505,611.269,365.933,621.2,364.357,620.5Z" transform="translate(-304.557 -459.678)" fill="#ff748e"/>
        <path id="Pfad_1341" data-name="Pfad 1341" d="M376.8,598.32s12.327,13.005,15.544,13.005S376.8,598.32,376.8,598.32Z" transform="translate(-338.778 -498.707)" opacity="0.1"/>
        <path id="Pfad_1342" data-name="Pfad 1342" d="M413.1,737.983c-1.576-.687-4.453-.276-9.382-1.781s-5.883-8.286-5.883-8.286v-.022h0c3.267-2.168,11.541-8.289,14.8-10.528a22.843,22.843,0,0,0,5.264-5.406c.452,1.421,4.137,2.709,5.639,3.493,1.573.821,6.645,8.014,6.645,8.014C431.244,728.749,414.672,738.683,413.1,737.983Z" transform="translate(-353.296 -577.158)" fill="#ff748e"/>
        <g id="Gruppe_1617" data-name="Gruppe 1617" transform="translate(0 5.95)" opacity="0.1">
          <path id="Pfad_1343" data-name="Pfad 1343" d="M302,406.236c.015.025.037.046.056.071.093-.118.189-.235.288-.347A2.31,2.31,0,0,1,302,406.236Z" transform="translate(-287.14 -371.861)"/>
          <path id="Pfad_1344" data-name="Pfad 1344" d="M276.054,438.289a11.682,11.682,0,0,1,1.911-4.744c-.564-.217-1.127-.437-1.685-.666a7.012,7.012,0,0,0,.081-1.05,12.036,12.036,0,0,0-1.951,4.815c-.158,2.068.861,4.025,1.765,5.883,3.48,7.184,5.626,15.588,3.01,23.131-1.136,3.276-3.1,6.193-4.53,9.361a30.231,30.231,0,0,0-2.112,17.889c.709,3.756,2.146,7.469,1.793,11.274-.619,6.549-6.264,11.423-11.925,14.77-2.313,1.369-5.016,2.623-7.6,2.533a9.366,9.366,0,0,1-.8,1.1c3.248,1.434,6.986-.18,10.042-1.988,5.664-3.344,11.321-8.206,11.94-14.767.353-3.806-1.084-7.518-1.8-11.274a30.256,30.256,0,0,1,2.106-17.889c1.424-3.165,3.406-6.085,4.53-9.361,2.617-7.543.468-15.947-3.01-23.131C276.921,442.305,275.9,440.358,276.054,438.289Z" transform="translate(-254.01 -389.721)"/>
          <path id="Pfad_1345" data-name="Pfad 1345" d="M371.754,296.707a8.948,8.948,0,0,0-.978-.867c3.753,4.868-1.666,9-1.935,14.244-.242,4.738.155,15.334-5.094,17.706-2.595,1.174-5.379-1.4-8.224-1.458a6.7,6.7,0,0,0-5.184,2.883,30.856,30.856,0,0,0-2.932,5.394,37.085,37.085,0,0,1-2.849,4.8,6.794,6.794,0,0,1-2.329,2.322c-1.7.889-3.775.39-5.611-.186q-2.678-.842-5.307-1.858a6.7,6.7,0,0,1-.081.963q3.465,1.412,7.032,2.533c1.833.576,3.9,1.074,5.611.186a6.968,6.968,0,0,0,2.329-2.326,36.476,36.476,0,0,0,2.846-4.8,30.9,30.9,0,0,1,2.935-5.4,6.7,6.7,0,0,1,5.18-2.88c2.849.062,5.633,2.632,8.227,1.458,5.249-2.372,4.849-12.968,5.094-17.706C370.769,306.213,376.764,301.922,371.754,296.707Z" transform="translate(-307.319 -295.84)"/>
        </g>
        <path id="Pfad_1346" data-name="Pfad 1346" d="M310.738,421.414c-.263.464-.52.929-.756,1.406-.09.183-.177.372-.254.56-1.623-1.635-5.574-5.521-7.778-6.726a13.206,13.206,0,0,1,2.075-3.165S309.279,416.268,310.738,421.414Z" transform="translate(-287.105 -371.109)" opacity="0.1"/>
        <path id="Pfad_1347" data-name="Pfad 1347" d="M310.883,419.331c-1.217-5.509-6.859-8.491-6.859-8.491A13.145,13.145,0,0,0,301.95,414c2.325,1.273,6.611,5.54,8.032,6.986Z" transform="translate(-287.105 -369.28)" fill="#ff748e"/>
      </g>
    </g>
  </g>
</svg>
